<svg fill="#6B7280" role="img" viewBox="0 0 24 24" xmlns="http://www.w3.org/2000/svg"><title>OpenAI</title><path d="M22.2819 9.8211a5.9857 5.9857 0 0 0-.516-4.9108 6.0555 6.0555 0 0 0-6.5094-2.9A5.9856 5.9856 0 0 0 10.583 0a6.0645 6.0645 0 0 0-5.7968 4.2053 5.9857 5.9857 0 0 0-3.997 2.9001 6.0555 6.0555 0 0 0 .743 7.04 5.9857 5.9857 0 0 0 .516 4.9108 6.0555 6.0555 0 0 0 6.5094 2.9A5.9856 5.9856 0 0 0 13.417 24a6.0645 6.0645 0 0 0 5.7968-4.2053 5.9857 5.9857 0 0 0 3.997-2.9001 6.0555 6.0555 0 0 0-.9289-7.0735Zm-9.1138 12.1528a4.5012 4.5012 0 0 1-2.8916-1.0402l.1432-.0812 4.8012-2.7706a.7652.7652 0 0 0 .3892-.665v-6.7722l2.0298 1.1718a.074.074 0 0 1 .0407.058v5.6024a4.5268 4.5268 0 0 1-4.5125 4.497ZM3.46 19.3192a4.5023 4.5023 0 0 1-.5402-3.0247l.1431.0856 4.8056 2.7706a.766.766 0 0 0 .771 0l5.8664-3.3811v2.3435a.076.076 0 0 1-.0291.0624L9.62 21.0008a4.5268 4.5268 0 0 1-6.16-1.6816ZM2.1969 8.5483a4.5013 4.5013 0 0 1 2.3315-1.9823v5.7087a.766.766 0 0 0 .3892.665l5.8619 3.3766-2.0298 1.1718a.074.074 0 0 1-.0693 0l-4.849-2.7929A4.5268 4.5268 0 0 1 2.1969 8.5483Zm16.6673 3.8798-5.8619-3.3811 2.0298-1.1718a.074.074 0 0 1 .0693 0l4.849 2.7974a4.5268 4.5268 0 0 1-.6982 8.1588v-5.7087a.766.766 0 0 0-.3892-.6946Zm2.0209-3.0425-.1431-.0856-4.8012-2.7974a.766.766 0 0 0-.771 0l-5.8619 3.3811v-2.3435a.076.076 0 0 1 .0291-.0624l4.8579-2.8019a4.5268 4.5268 0 0 1 6.6902 4.7092ZM8.1814 13.9406 6.1516 12.7688a.074.074 0 0 1-.0407-.058V7.104a4.5268 4.5268 0 0 1 7.4158-3.4662l-.1431.0812-4.8012 2.7706a.7652.7652 0 0 0-.3892.665v6.786Z"/></svg>
